<svg id="Layer_1" data-name="Layer 1" xmlns="http://www.w3.org/2000/svg" viewBox="0 0 35.54 81.11"><defs><style>.cls-1{fill:#262223;}</style></defs><title>icono cosmeticos</title><path class="cls-1" d="M365.84,381.6a10.42,10.42,0,0,0,.87-5.58c0-.42,0-.84,0-1.26q0-10.68,0-21.36v-9.65a15.8,15.8,0,0,0-1.28-6.62.68.68,0,0,1,0,.27l-.24-.88c-.13-.2-.24-.41-.35-.62-.31-.64-.65-1.26-1-1.84l-.47-.05.18-.17c-2-2.1-4-4.1-4.48-6.82a2.71,2.71,0,0,0,1-2.24v-1.94c0-1.88,0-3.82,0-5.74a3.09,3.09,0,0,0-1.25-2.27q0-1.5,0-3c0-1.54,0-3.07,0-4.6a3.41,3.41,0,0,0-1.57-3.13l-.77-.21H333.64l-.57.11a3,3,0,0,0-1.87,3.07c0,.8,0,1.6,0,2.39s0,1.36,0,2a2.8,2.8,0,0,0,3.1,3.1h6v.17a2.89,2.89,0,0,0-1.29,2.67v.68c0,2.06,0,4.11,0,6.16a3.23,3.23,0,0,0,1.05,2.74,9.85,9.85,0,0,1-2.84,5.05,15.5,15.5,0,0,0-4.74,11.45v34.37a6.74,6.74,0,0,0,7.12,7.12h21.09a5.27,5.27,0,0,0,3.15-1h0a10.59,10.59,0,0,0,1.87-2.07l.13-.17-.13-.25ZM354.6,319.87v2.22h-10v-2.22Zm6.6,57.92c0,1.38-.34,1.72-1.73,1.72H339.69c-1.34,0-1.69-.35-1.69-1.68V366.74q0-11.6,0-23.2a10.15,10.15,0,0,1,3.13-7.6,15.11,15.11,0,0,0,4.44-8.3h8c.06.2.12.39.17.59a22.78,22.78,0,0,0,1.33,3.55,17.92,17.92,0,0,0,3,4.14,10.6,10.6,0,0,1,3.12,7.66q0,11.87,0,23.73Z" transform="translate(-331.2 -303.89)"/></svg>